# File created by Blade
# Date/Time:  Thu Jan 22 18:06:27 2015
# Frame Rate: 120.000 fps
#------------------------------------------------------
:FULLY-SPECIFIED
:DEGREES
3198
root 0.366197 32.801564 -2.208979 6.131087 -8.696310 1.364952
RightUpLeg -17.841177 -12.353169 -2.503716
RightLeg 81.839678 -0.000000 -0.000000
RightFoot 0.402816 -9.476295 7.230000
RightToeBase -4.370689 -0.000000 0.000000
LeftUpLeg -0.985222 1.599497 -10.772912
LeftLeg 0.913801 -0.000000 -0.000000
LeftFoot -12.860138 9.827469 -5.361793
LeftToeBase 11.113729 -0.000000 -0.000000
Spine -8.626318 -1.824581 -4.250731
RightShoulder -17.809414 -16.863239 -19.857633
RightArm 24.445260 21.905013 54.356086
RightForeArm -4.474998 0.000000 21.608172
RightHand 11.595073 0.000000 0.271870
RightHandThumb1 -24.326973 -0.000000 -32.862282
LeftShoulder -22.133301 5.509922 25.417540
LeftArm 7.379128 -42.839128 -51.094555
LeftForeArm 11.013009 0.000000 66.591207
LeftHand -2.813141 0.000000 33.684780
LeftHandThumb1 -26.253704 0.000000 33.147579
Head 12.480370 -1.873897 2.026742
3199
root 0.369849 32.800675 -2.207135 6.118750 -8.698389 1.376160
RightUpLeg -17.838714 -12.375894 -2.518102
RightLeg 81.838063 -0.000000 -0.000000
RightFoot 0.411217 -9.445899 7.411652
RightToeBase -4.566567 -0.000000 0.000000
LeftUpLeg -0.982783 1.588045 -10.789558
LeftLeg 0.937662 -0.000000 -0.000000
LeftFoot -12.877272 9.835522 -5.377580
LeftToeBase 11.120656 -0.000000 -0.000000
Spine -8.634100 -1.812359 -4.270816
RightShoulder -17.822446 -16.876485 -19.848059
RightArm 24.503291 21.931533 54.381625
RightForeArm -4.618687 -0.000000 21.569558
RightHand 11.715304 -0.000000 0.370244
RightHandThumb1 -24.326973 -0.000000 -32.862282
LeftShoulder -22.128883 5.493261 25.434082
LeftArm 7.355224 -42.878795 -51.080180
LeftForeArm 11.051235 -0.000000 66.549575
LeftHand -2.783978 -0.000000 33.596143
LeftHandThumb1 -26.253704 0.000000 33.147579
Head 12.496202 -1.858234 2.083929
3200
root 0.374946 32.799115 -2.202483 6.089515 -8.702243 1.386415
RightUpLeg -17.808054 -12.404828 -2.547640
RightLeg 81.833357 -0.000000 -0.000000
RightFoot 0.400468 -9.442947 7.404542
RightToeBase -4.431834 -0.000000 0.000000
LeftUpLeg -0.942499 1.573843 -10.806803
LeftLeg 0.926769 -0.000000 -0.000000
LeftFoot -12.877747 9.850321 -5.373179
LeftToeBase 11.153695 -0.000000 -0.000000
Spine -8.633451 -1.813863 -4.275201
RightShoulder -17.789369 -16.857095 -19.871925
RightArm 24.494068 21.904435 54.371366
RightForeArm -4.617190 -0.000000 21.592024
RightHand 11.727647 -0.000000 0.369499
RightHandThumb1 -24.326973 -0.000000 -32.862282
LeftShoulder -22.117956 5.470982 25.441501
LeftArm 7.289238 -42.926313 -51.033392
LeftForeArm 11.111894 -0.000000 66.515616
LeftHand -2.894351 -0.000000 33.434622
LeftHandThumb1 -26.253704 0.000000 33.147579
Head 12.539973 -1.838438 2.103270
3201
root 0.372935 32.798543 -2.203312 6.094177 -8.686798 1.376416
RightUpLeg -17.814347 -12.438661 -2.521433
RightLeg 81.821078 -0.000000 -0.000000
RightFoot 0.391516 -9.429658 7.460787
RightToeBase -4.420891 -0.000000 0.000000
LeftUpLeg -0.934303 1.541327 -10.792310
LeftLeg 0.904873 -0.000000 -0.000000
LeftFoot -12.883657 9.862240 -5.391035
LeftToeBase 11.129785 -0.000000 -0.000000
Spine -8.656133 -1.831565 -4.284992
RightShoulder -17.787649 -16.853794 -19.858180
RightArm 24.529404 21.877608 54.380793
RightForeArm -4.616311 -0.000000 21.603636
RightHand 11.734539 0.000000 0.370230
RightHandThumb1 -24.326973 -0.000000 -32.862282
LeftShoulder -22.107268 5.409611 25.468322
LeftArm 7.213717 -42.921996 -50.945190
LeftForeArm 10.952131 -0.000000 66.467724
LeftHand -2.706569 0.000000 34.222078
LeftHandThumb1 -26.253704 0.000000 33.147579
Head 12.564654 -1.833007 2.166283
